# xmcd
#
# Track frame offsets: 
#        150
#        16945
#        29712
#        49405
#        58505
#        86582
#        105832
#        128710
#        154495
#        169885
#
# Disc length: 2323 seconds
#
# Revision: 14
# Processed by: cddbd v1.5.2PL0 Copyright (c) Steve Scherf et al.
# Submitted via: ExactAudioCopy v0.95a5
#
DISCID=7f09110a
DTITLE=Jethro Tull - This Was
DYEAR=1968
DGENRE=Rock
TTITLE0=My Sunday Feeling
TTITLE1=Some Day the Sun Won't Shine for You
TTITLE2=Beggar's Farm
TTITLE3=Move on Alone
TTITLE4=Serenade to a Cuckoo
TTITLE5=Dharma for One
TTITLE6=It's Breaking Me Up
TTITLE7=Cat's Squirrel
TTITLE8=A Song for Jeffrey
TTITLE9=Round
EXTD=YEAR: 1968
EXTT0=
EXTT1=
EXTT2=
EXTT3=
EXTT4=
EXTT5=
EXTT6=
EXTT7=
EXTT8=
EXTT9=
PLAYORDER=
